<svg width="64" height="64" version="1.1" viewBox="0 0 16.933 16.933" xml:space="preserve" xmlns="http://www.w3.org/2000/svg"><g><rect width="16.933" height="16.933" fill="#09768d" stroke-width=".045292"/><path d="m4.2974 16.06c-0.89368-0.11298-1.1562-0.23573-2.4513-1.1461-1.1938-0.83916-1.2863-0.94847-1.1265-1.3311 0.09617-0.23017 0.25147-0.33287 0.50334-0.33287 0.17157 0 0.31698 0.0904 1.772 1.1016 0.48428 0.33656 1.0409 0.59448 1.283 0.59448 0.02722 0-0.04273-0.12948-0.15542-0.28774-0.22446-0.3152-0.50691-0.86067-0.66762-1.2893-0.0914-0.2438-0.13633-0.28651-0.3997-0.38005-0.39972-0.14197-0.65478-0.36939-0.82552-0.73606-0.2588-0.55576-0.16633-1.1758 0.2383-1.5979 0.21664-0.226 0.58168-0.43387 0.76193-0.43387 0.09198 0 0.14759-0.087 0.24756-0.38744 0.20344-0.61135 0.70434-1.3997 1.2147-1.9118 0.54314-0.54501 1.1027-0.92061 1.7756-1.1919l0.49494-0.19949 0.03029-2.3193c0.02937-2.2489 0.03436-2.3269 0.1645-2.5702 0.17816-0.33313 0.56509-0.65603 0.89768-0.74915 0.45789-0.1282 0.76979-0.0545 1.8455 0.43632 0.54973 0.25082 1.7628 0.80402 2.6956 1.2293 1.8822 0.85816 2.0676 0.98306 2.0076 1.3527-0.01915 0.11806-0.07594 0.25576-0.12618 0.306-0.05025 0.0503-1.0802 0.54692-2.2888 1.1037-1.6335 0.75256-2.1974 1.0388-2.1974 1.1156 0 0.0704 0.1155 0.14709 0.36346 0.24132 0.38485 0.14624 1.0226 0.49173 1.2922 0.70001 0.75844 0.5859 1.4642 1.5159 1.7794 2.3446 0.14441 0.37977 0.2172 0.49976 0.30319 0.49976 0.19216 0 0.56036 0.22184 0.78991 0.47593 0.68234 0.75527 0.30772 2.0213-0.6862 2.3191-0.19255 0.0577-0.24342 0.11096-0.33221 0.34782-0.1591 0.42444-0.37873 0.84801-0.63939 1.2331-0.12942 0.1912-0.23531 0.36535-0.23531 0.38702 0 0.0787 0.71741-0.0282 0.9856-0.14678 0.15138-0.067 0.55717-0.37722 0.90177-0.68946 0.92715-0.8401 1.0059-0.89791 1.2235-0.89791 0.38899 0 0.63066 0.34311 0.5008 0.71103-0.08156 0.23105-1.5445 1.5621-1.9735 1.7956-0.82802 0.45066-1.9794 0.4536-2.9562 8e-3 -0.17517-0.08-0.60507-0.33708-0.95532-0.57129-0.79056-0.52863-1.1269-0.63694-1.8498-0.59572-0.62771 0.0358-1.0316 0.19896-1.5917 0.64312-0.45567 0.3613-0.87234 0.5766-1.3466 0.69582-0.40178 0.10099-0.99239 0.15871-1.2678 0.12389zm1.5638-1.4255c0.07277-0.0381 0.29587-0.19813 0.49577-0.35557 0.71617-0.56406 1.4165-0.80226 2.3413-0.79639 0.88255 6e-3 1.3973 0.18342 2.249 0.7769 0.25913 0.18056 0.49559 0.31319 0.52547 0.29472 0.19038-0.11766 0.91154-1.2437 0.91154-1.4233 0-0.0424-1.259-0.0626-3.9072-0.0626-2.8093 0-3.9072 0.0188-3.9072 0.0669 0 0.2617 0.91583 1.5687 1.0992 1.5687 0.03284 0 0.11926-0.0312 0.19203-0.0693zm7.7952-2.7778c0.15601-0.156 0.15381-0.31512-0.0063-0.46007-0.12324-0.11154-0.2964-0.1154-5.1729-0.1154-4.8765 0-5.0497 4e-3 -5.1729 0.1154-0.16017 0.14495-0.16236 0.30407-0.0064 0.46007 0.11922 0.11922 0.20192 0.12116 5.1793 0.12116 4.9773 0 5.06-2e-3 5.1793-0.12116zm-1.3051-1.8324c-0.06986-0.23143-0.37345-0.72694-0.646-1.0544-0.52186-0.62695-1.1428-1.0493-1.9561-1.3304-0.43384-0.14997-0.56712-0.16737-1.2721-0.16616-0.6854 9.6e-4 -0.85032 0.022-1.2721 0.16092-0.80448 0.26488-1.5009 0.74571-1.9921 1.3754-0.28383 0.36386-0.54665 0.80069-0.61048 1.0147l-0.04066 0.13629h7.8307zm-3.541-5.7988v-2.1188l-0.15842-0.1038c-0.14211-0.0931-0.17485-0.0946-0.31802-0.0142l-0.15961 0.0896-0.01591 2.133-0.01591 2.133h0.66789zm3.447-0.15993c0.24666-0.11358 0.43748-0.21729 0.42404-0.23046-0.02047-0.0201-2.4119-1.1304-2.6444-1.2278-0.05918-0.0248-0.07572 0.24651-0.07572 1.2421v1.2738l0.92379-0.42559c0.50808-0.23407 1.1256-0.51852 1.3723-0.6321z" fill="#fff" stroke-width=".28619"/></g></svg>
